<?xml version="1.0" encoding="UTF-8" standalone="no"?>
<!-- Created with Inkscape (http://www.inkscape.org/) -->

<svg
   version="1.1"
   id="svg524"
   width="31.999994"
   height="32"
   viewBox="0 0 31.999995 32.000001"
   sodipodi:docname="360_F_330796602_x5h8unLknqLs3mmKhYXbEu6gucdN7SJv.jpg"
   xmlns:inkscape="http://www.inkscape.org/namespaces/inkscape"
   xmlns:sodipodi="http://sodipodi.sourceforge.net/DTD/sodipodi-0.dtd"
   xmlns="http://www.w3.org/2000/svg"
   xmlns:svg="http://www.w3.org/2000/svg">
  <defs
     id="defs528" />
  <sodipodi:namedview
     id="namedview526"
     pagecolor="#ffffff"
     bordercolor="#000000"
     borderopacity="0.25"
     inkscape:showpageshadow="2"
     inkscape:pageopacity="0.0"
     inkscape:pagecheckerboard="0"
     inkscape:deskcolor="#d1d1d1"
     showgrid="false" />
  <g
     inkscape:groupmode="layer"
     inkscape:label="Image"
     id="g530"
     transform="translate(-28.003114,-44.123351)">
    <ellipse
       style="fill:#ffffff;stroke:#000102;stroke-width:4.0672;stroke-opacity:0"
       id="path697"
       cx="44.003113"
       cy="60.123352"
       rx="13.966397"
       ry="13.966398"
       inkscape:label="path697"
       inkscape:export-filename="path697.svg"
       inkscape:export-xdpi="96"
       inkscape:export-ydpi="96" />
    <path
       style="fill:#000000;stroke-width:0.32"
       d="m 44.910127,69.053939 c -1.525002,-1.234871 0.02339,-2.458448 5.088189,-4.020842 3.834924,-1.182998 5.18024,-0.870649 5.18024,1.20272 0,2.546493 -7.91969,4.720016 -10.268429,2.818122 z M 33.374005,67.757676 c -0.755449,-0.614937 -0.755449,-0.614937 0.175767,-1.590966 0.931212,-0.976029 0.931212,-0.976029 2.124624,0.102147 0.656377,0.592995 1.497331,1.174634 1.868787,1.292528 1.314147,0.417098 0.648937,0.811229 -1.369178,0.811229 -1.541357,0 -2.230473,-0.151344 -2.8,-0.614938 z m 13.370167,-4.521977 c -3.010896,-0.876307 -4.118048,-4.890659 -1.634976,-5.928154 2.213312,-0.924781 4.606009,0.884333 4.875228,3.686157 0.193207,2.010733 -1.058672,2.876938 -3.240252,2.241997 z m -0.666637,-3.853792 c 0.119213,-0.19289 0.01971,-0.547683 -0.221117,-0.788429 -0.555123,-0.554941 -1.407341,-0.08408 -1.134534,0.626842 0.224896,0.586073 1.033721,0.68248 1.355651,0.161587 z m -6.018979,3.525075 c -0.81032,-0.471968 -0.687236,-1.155437 0.24,-1.332688 1.923452,-0.367693 3.19214,0.591862 1.781036,1.347062 -0.76679,0.410372 -1.298281,0.406592 -2.021036,-0.01437 z m -4.388743,-1.233331 c -1.272294,-2.377306 1.843994,-5.554877 3.663415,-3.735456 1.095827,1.095827 1.016857,1.658185 -0.437024,3.112067 -1.39184,1.391837 -2.681744,1.641069 -3.226391,0.623389 z m 3.935485,-2.397642 c 0.232218,-0.605149 -0.486806,-1.181814 -1.044106,-0.837385 -0.529856,0.327468 -0.221312,1.29399 0.413085,1.29399 0.250691,0 0.534653,-0.205472 0.631021,-0.456605 z m 11.617046,-5.289686 c -1.836361,-1.963219 -1.927065,-2.781549 -0.34128,-3.079043 2.438644,-0.457495 4.192538,0.86111 3.823866,2.874835 -0.41432,2.263043 -1.497382,2.32655 -3.482586,0.204208 z m -14.554473,-0.09239 c -0.665114,-0.665113 -0.425357,-2.070781 0.47384,-2.778089 0.984825,-0.774666 2.745283,-0.871914 3.316845,-0.183226 0.229065,0.276006 0.260425,0.48 0.07379,0.48 -0.178516,0 -1.037956,0.641392 -1.909869,1.425315 -1.197987,1.077095 -1.67552,1.335088 -1.954608,1.056 z"
       id="path642" />
  </g>
</svg>
