<?xml version="1.0" encoding="UTF-8" standalone="no"?>
<!-- Created with Inkscape (http://www.inkscape.org/) -->

<svg
   width="50mm"
   height="23.250031mm"
   viewBox="0 0 50 23.250031"
   version="1.1"
   id="svg5"
   xml:space="preserve"
   xmlns:inkscape="http://www.inkscape.org/namespaces/inkscape"
   xmlns:sodipodi="http://sodipodi.sourceforge.net/DTD/sodipodi-0.dtd"
   xmlns="http://www.w3.org/2000/svg"
   xmlns:svg="http://www.w3.org/2000/svg"><sodipodi:namedview
     id="namedview7"
     pagecolor="#ffffff"
     bordercolor="#000000"
     borderopacity="0.25"

     showgrid="false" /><defs
     id="defs2" /><g
     inkscape:label="Layer 1"
     inkscape:groupmode="layer"
     id="layer1"
     transform="translate(-29.143,-112.01686)"><path
       style="fill:#517201;fill-opacity:1;stroke-width:0.0759458"
       d="m 29.143002,131.7107 v -3.55607 h 0.851523 0.851524 v 1.05836 1.05835 h 2.721669 c 1.90236,0 2.773309,-0.0293 2.89321,-0.0971 0.100187,-0.0567 0.207779,-0.22402 0.258661,-0.40218 0.05067,-0.17742 0.08712,-0.6962 0.08712,-1.2401 0,-0.7583 -0.02322,-0.97911 -0.122776,-1.16797 -0.06752,-0.12809 -0.199805,-0.26929 -0.293953,-0.31379 -0.100813,-0.0476 -1.625536,-0.0809 -3.70908,-0.0809 H 29.143 v -0.93135 -0.93136 h 3.938934 c 3.383708,0 3.982734,0.0186 4.249674,0.13159 0.170908,0.0724 0.441099,0.27029 0.600425,0.4398 0.159325,0.16951 0.346154,0.46271 0.415177,0.65159 0.109019,0.2983 0.125691,0.57761 0.12699,2.12751 0.0012,1.40535 -0.02129,1.8672 -0.105797,2.17551 -0.05901,0.21526 -0.226462,0.55965 -0.372106,0.7653 -0.152467,0.21528 -0.417612,0.45972 -0.62501,0.5762 l -0.360207,0.20231 -3.082514,0.0252 -3.082515,0.0252 v 1.52001 1.52001 h -0.851524 -0.851523 z m 11.374266,3.42602 c -0.169748,-0.065 -0.436109,-0.25386 -0.591913,-0.41963 -0.155804,-0.16575 -0.36945,-0.51947 -0.474768,-0.78603 L 39.2591,133.4464 v -1.95401 -1.95401 l 0.205883,-0.41389 c 0.113236,-0.22765 0.327054,-0.51619 0.475153,-0.64119 0.148099,-0.125 0.377328,-0.27638 0.509397,-0.33637 0.177938,-0.0809 1.011967,-0.11716 3.220459,-0.14023 l 2.980331,-0.0311 v 3.64561 3.6456 H 45.7988 44.947276 v -2.66704 -2.66706 h -1.775647 c -1.087573,0 -1.826433,0.0338 -1.906707,0.0872 -0.07208,0.048 -0.17736,0.19847 -0.233948,0.33449 -0.07431,0.1786 -0.102892,0.51836 -0.102892,1.22345 0,0.69235 0.03131,1.07344 0.10768,1.31067 0.07704,0.23927 0.167177,0.36027 0.316713,0.42506 0.119838,0.0519 0.756996,0.0906 1.493185,0.0906 h 1.28415 v 0.93135 0.93135 l -1.651956,-0.006 c -1.209817,-0.004 -1.734559,-0.0375 -1.96059,-0.12414 z m 6.882395,-3.51068 v -3.64075 h 0.817464 0.817462 v 3.64075 3.64072 h -0.817462 -0.817464 z m 5.640034,1.17791 -0.01998,-2.46282 -0.191134,-0.20423 c -0.188199,-0.20109 -0.211994,-0.20424 -1.549772,-0.20424 h -1.358638 v -0.98019 -0.98021 l 1.686015,0.0277 1.686017,0.0277 0.388574,0.23714 c 0.213715,0.13045 0.468083,0.35462 0.565261,0.49816 0.09718,0.14354 0.244196,0.41782 0.326706,0.60953 0.144477,0.33565 0.150775,0.45093 0.170499,3.12141 l 0.02048,2.77288 h -0.852028 -0.852025 z m 3.714751,2.32417 c -0.156454,-0.069 -0.420413,-0.27401 -0.586574,-0.45581 -0.174531,-0.19093 -0.370803,-0.51956 -0.464775,-0.77822 -0.151601,-0.41725 -0.164158,-0.56647 -0.184638,-2.19433 -0.01372,-1.09103 0.0062,-1.87626 0.05283,-2.09198 0.04115,-0.18994 0.173895,-0.5068 0.294988,-0.70412 0.121233,-0.19755 0.372018,-0.45597 0.558083,-0.57507 0.337257,-0.21587 0.342207,-0.21637 2.553942,-0.25862 l 2.216028,-0.0423 0.01836,-1.84153 0.01836,-1.84154 h 0.850195 0.850196 v 4.02174 4.02175 H 62.07992 61.228396 v -1.22769 -1.2277 H 59.45275 c -1.141678,0 -1.824753,0.0326 -1.913181,0.0915 -0.07565,0.0503 -0.180919,0.22055 -0.233948,0.37829 -0.06332,0.1884 -0.09641,0.60672 -0.09641,1.21916 0,0.6524 0.03233,1.0328 0.10768,1.26685 0.07702,0.23927 0.167177,0.36027 0.316713,0.42505 0.134002,0.0581 1.12234,0.0906 2.753439,0.0906 h 2.544405 v 0.93135 0.93135 l -2.946272,-0.007 c -2.417102,-0.006 -2.997361,-0.0292 -3.230731,-0.13197 z m 8.245504,0.0464 c -0.11747,-0.0423 -0.362058,-0.2008 -0.543529,-0.3522 -0.245803,-0.20508 -0.386775,-0.41211 -0.552788,-0.81184 l -0.222844,-0.53658 v -1.94335 c 0,-1.7477 0.01311,-1.97497 0.130273,-2.25748 0.07166,-0.17278 0.23259,-0.436 0.357643,-0.58496 0.12505,-0.14897 0.380638,-0.35852 0.567972,-0.46568 0.336515,-0.19249 0.37645,-0.19515 3.320943,-0.22087 l 2.980332,-0.0261 v 3.64561 3.64561 H 70.18643 69.334908 v -2.66705 -2.66704 h -1.808326 -1.808327 l -0.161753,0.20103 c -0.100675,0.12513 -0.180024,0.35251 -0.210149,0.60218 -0.02662,0.22064 -0.03367,0.75127 -0.01565,1.17918 0.01802,0.42791 0.07565,0.88926 0.128096,1.0252 0.05244,0.13595 0.171989,0.29535 0.265657,0.35423 0.119496,0.0752 0.561525,0.10744 1.481651,0.10831 l 1.311346,9.9e-4 v 0.93135 0.93135 l -1.651957,-0.008 c -0.908575,-0.004 -1.748066,-0.0423 -1.865537,-0.0846 z m 8.14934,0.0131 c -0.09391,-0.0355 -0.262512,-0.12424 -0.374668,-0.19717 -0.112162,-0.073 -0.300251,-0.2597 -0.41798,-0.41501 -0.117728,-0.15532 -0.286332,-0.45386 -0.374669,-0.6634 -0.155491,-0.36885 -0.160619,-0.44454 -0.160619,-2.37072 0,-1.89369 0.0073,-2.00667 0.151296,-2.34136 0.08321,-0.1934 0.266174,-0.46933 0.406573,-0.61317 0.140402,-0.14384 0.398985,-0.32087 0.574631,-0.39337 0.2695,-0.11124 0.684559,-0.12788 2.65891,-0.1065 2.301658,0.0249 2.344389,0.0286 2.637682,0.22302 0.163968,0.10872 0.375045,0.29922 0.469056,0.42334 0.09401,0.12412 0.227418,0.37807 0.296445,0.56434 0.0894,0.24122 0.125952,0.54085 0.127012,1.04138 0.0014,0.4396 -0.03413,0.78841 -0.09371,0.93156 -0.05237,0.12585 -0.155436,0.29656 -0.229034,0.37936 -0.07361,0.0828 -0.23769,0.18817 -0.364619,0.23416 -0.126929,0.046 -1.027808,0.23573 -2.001951,0.42164 -0.974142,0.1859 -1.855469,0.35969 -1.958503,0.38621 l -0.187337,0.0483 v -0.80436 -0.80433 l 0.187337,-0.0466 c 0.10303,-0.0256 0.75445,-0.16407 1.447589,-0.30771 0.693141,-0.14363 1.316629,-0.28876 1.38553,-0.32249 0.120266,-0.0589 0.119831,-0.0697 -0.01091,-0.27054 l -0.13618,-0.20919 -1.604956,-0.0255 c -1.101079,-0.0175 -1.650177,0.004 -1.749001,0.0703 -0.07922,0.0527 -0.187432,0.22488 -0.24046,0.38263 -0.06398,0.19031 -0.09641,0.61105 -0.09641,1.25057 0,0.53008 0.03398,1.08492 0.07551,1.23299 0.04223,0.15059 0.160815,0.32404 0.269106,0.39363 0.158305,0.10176 0.585384,0.12443 2.342816,0.12443 H 78.327 v 0.93135 0.93135 l -2.503477,-0.007 c -1.376914,-0.004 -2.580314,-0.0362 -2.674226,-0.0718 z"
       id="path2025" /><path
       id="path3459"
       style="stroke:#171717;stroke-width:0.225366;stroke-linecap:round;stroke-linejoin:round;paint-order:stroke markers fill"
       d="m 65.153139,112.12954 c -2.762905,-9.8e-4 -5.374891,1.06847 -5.906526,3.29958 -0.165917,0.6963 -0.05773,1.16611 0.249487,1.49025 -1.745,-0.17192 -3.580091,-0.26537 -5.476584,-0.26537 -1.684145,0 -3.319243,0.0739 -4.886781,0.21051 0.05271,-0.22802 0.04376,-0.50796 -0.03835,-0.85252 -0.680493,-2.85583 -4.768738,-3.81105 -8.220125,-3.04705 -3.451389,0.764 -5.697669,3.69858 -5.017175,6.5544 0.08699,0.36511 0.196057,0.62535 0.327401,0.80076 -1.82432,1.11062 -2.872322,2.40603 -2.872321,3.78984 10e-7,1.96079 1.467021,-2.04331 4.845199,-3.75054 3.716276,-1.87809 11.772786,-2.88012 17.763576,-2.88012 4.562019,0 10.34455,1.80619 13.813877,3.35292 5.227945,2.33077 6.147021,8.48303 6.147021,6.00778 0,-1.45796 -2.317778,-5.54799 -4.326835,-6.69692 0.429179,-0.0805 0.743917,-0.42851 0.929314,-1.2066 0.6805,-2.85582 -1.565784,-5.79038 -5.017173,-6.55438 -0.75499,-0.16714 -1.540391,-0.25183 -2.314005,-0.25254 z"
       sodipodi:nodetypes="sscsccsscssssscccss" /></g></svg>
